# xmcd CD database file
#
# Track frame offsets:
#	150
#	17625
#	35367
#	52477
#	69837
#	87207
#	99105
#	112227
#	183025
#
# Disc length: 2675 seconds
#
# Revision: 3
# Processed by: cddbd v1.4PL0 Copyright (c) Steve Scherf et al.
# Submitted via: CDex 1.51
#
DISCID=6c0a7109
DTITLE=Kenny Rogers - The Gift
DYEAR=1996
DGENRE=Country
TTITLE0=Mary, Did You Know
TTITLE1=A Soldier's King
TTITLE2=Pretty Little Baby Child
TTITLE3=What A Wonderful Beginning
TTITLE4=It's The Messiah
TTITLE5=I Trust You
TTITLE6=Sweet Little Jesus Boy
TTITLE7=The Chosen One Montage
TTITLE8='Til The Season Comes 'Round Again
EXTD=YEAR: 1996
EXTT0=
EXTT1=
EXTT2=
EXTT3=
EXTT4=
EXTT5=
EXTT6=
EXTT7=
EXTT8=
PLAYORDER=
